<svg xmlns="http://www.w3.org/2000/svg" viewBox="0 0 550 340" width="100%" height="100%" style="background:#0a0e20; border-radius:10px; font-family:'Inter',system-ui,sans-serif;">
  <defs>
    <linearGradient id="cyanGrad" x1="0" y1="0" x2="1" y2="0"><stop offset="0%" stop-color="#00d4ff"/><stop offset="100%" stop-color="#8b4dff"/></linearGradient>
    <linearGradient id="greenGrad" x1="0" y1="0" x2="0" y2="1"><stop offset="0%" stop-color="#00ff88" stop-opacity="0.35"/><stop offset="100%" stop-color="#00ff88" stop-opacity="0.0"/></linearGradient>
    <linearGradient id="biomassGrad" x1="0" y1="0" x2="0" y2="1"><stop offset="0%" stop-color="#00d4ff" stop-opacity="0.4"/><stop offset="100%" stop-color="#00d4ff" stop-opacity="0.0"/></linearGradient>
    <filter id="glow" x="-20%" y="-20%" width="140%" height="140%"><feGaussianBlur stdDeviation="3" result="blur"/><feMerge><feMergeNode in="blur"/><feMergeNode in="SourceGraphic"/></feMerge></filter>
  </defs>
  <!-- Background & Axes Card -->
  <rect x="0" y="0" width="550" height="340" rx="10" fill="#0a0e20"/>
  <rect x="50" y="45" width="470" height="250" rx="6" fill="#0e142a" stroke="#222845" stroke-width="1.2"/>
  <!-- Title -->
  <text x="275" y="28" fill="#f2f6fc" font-size="14" font-weight="700" text-anchor="middle" letter-spacing="0.5">Electrodo pH-4502C: Outliers por Burbujeo</text><path d="M 45 198.49550308665656 L 46.6 196.9493466380287 L 48.2 201.05797593743364 L 49.8 201.33104221595087 L 51.4 203.72240764370179 L 53 201.64093295842446 L 54.6 207.28456684373688 L 56.2 202.5565611837061 L 57.8 195.32653329489105 L 59.4 202.84623689585928 L 61 204.4379654479203 L 62.6 199.5374638187236 L 64.2 193.22072986721082 L 65.8 199.47234633225037 L 67.4 196.9493467838949 L 69 199.61890799999486 L 70.6 197.8587482092808 L 72.2 198.95316879932977 L 73.8 190.7860237570821 L 75.4 193.7499305984275 L 77 191.29881408722824 L 78.6 194.00454014819303 L 80.2 196.91782296395567 L 81.8 198.2559124813638 L 83.4 204.80599457455676 L 85 206.75675634826268 L 86.6 189.77690027545805 L 88.19999999999999 194.73370732341613 L 89.80000000000001 188.8509891519562 L 91.4 185.32018112811298 L 93 189.15060619626786 L 94.6 195.73506810688008 L 96.2 191.90374618214634 L 97.8 190.23725122041336 L 99.4 87.13369877103477 L 101 191.52098387019066 L 102.6 200.93594108734175 L 104.2 187.86367847985974 L 105.80000000000001 183.03907166236252 L 107.4 186.66739464244415 L 109 191.87538800412753 L 110.6 194.58247817343644 L 112.2 198.7972871902008 L 113.8 190.22935722016814 L 115.4 191.98101548766692 L 117 187.5206210116528 L 118.6 188.8976800371189 L 120.2 184.73640360036507 L 121.8 187.28830987970113 L 123.4 181.8134860257229 L 125 186.72117076422302 L 126.60000000000001 184.53096639584965 L 128.2 71.42962991815406 L 129.8 186.70538228441075 L 131.39999999999998 63.405460329680096 L 133 180.97288376696588 L 134.60000000000002 192.04601424965182 L 136.2 187.31276451040264 L 137.8 188.03084212037498 L 139.39999999999998 184.56115936210074 L 141 193.986036584361 L 142.60000000000002 188.29216065935938 L 144.2 183.56303195723135 L 145.8 186.89236016829653 L 147.4 190.044928495675 L 149 189.61628056098266 L 150.6 187.85549668977686 L 152.2 183.52726358021457 L 153.8 180.89563901455261 L 155.4 188.25777236997544 L 157 186.84093531385912 L 158.6 186.24107366551237 L 160.2 193.9715438361025 L 161.8 198.6094864729634 L 163.4 189.00886494388334 L 165 189.14019308254183 L 166.60000000000002 187.68440955660304 L 168.2 190.8020128363915 L 169.8 186.86757474259377 L 171.39999999999998 192.1523574251106 L 173 44.32854111617621 L 174.60000000000002 188.52462227034613 L 176.2 190.925853883338 L 177.8 54.61762287459578 L 179.4 186.9685696947746 L 181 186.96065915180918 L 182.6 191.27757612983808 L 184.2 193.24742151333902 L 185.8 189.65597949928366 L 187.4 75.77192910303265 L 189 183.5221711277004 L 190.6 188.08659356422015 L 192.2 189.47341022423365 L 193.8 181.53445582958938 L 195.4 183.25685141589975 L 197 181.6409820572585 L 198.6 191.61520576895094 L 200.2 182.30319662400484 L 201.8 186.93779034386665 L 203.4 192.57255988995277 L 205 199.68079275246822 L 206.6 182.42810288674156 L 208.20000000000002 196.80069389457285 L 209.79999999999998 194.3051372597903 L 211.4 198.2272786884941 L 213 191.05801254559034 L 214.6 187.39827525601385 L 216.20000000000002 190.6976160843411 L 217.79999999999998 186.503620752011 L 219.4 191.300235142832 L 221 186.93774934658603 L 222.6 192.37164932435223 L 224.20000000000002 196.07500203444587 L 225.79999999999998 194.51366575461364 L 227.4 183.9321623910743 L 229 194.51631524945356 L 230.6 195.65896992852828 L 232.20000000000002 194.54370011050185 L 233.79999999999998 192.9262171339526 L 235.4 195.69260577188382 L 237 190.14697570223706 L 238.6 191.61753886630126 L 240.20000000000002 205.67227822889038 L 241.79999999999998 198.96659786993843 L 243.4 202.39596866939218 L 245 198.04262020873864 L 246.6 192.27063770151744 L 248.2 193.01585453451102 L 249.8 203.90163950683504 L 251.4 196.58519660159087 L 253 196.26143075018194 L 254.6 195.53576345663396 L 256.2 197.0552110593482 L 257.8 194.05607594199765 L 259.4 200.04996457764207 L 261 198.88489639672653 L 262.6 197.70103697964964 L 264.2 197.53288807414916 L 265.8 198.12235589984618 L 267.4 202.23535762853243 L 269 207.6024755874109 L 270.6 208.84432962381754 L 272.2 203.89473965148017 L 273.8 203.05886763044757 L 275.4 200.04549312631517 L 277 203.41180675635303 L 278.6 203.30944072083068 L 280.2 201.89605725989333 L 281.8 204.13705093512826 L 283.4 205.64578542186678 L 285 203.22202643970667 L 286.6 207.68017203239674 L 288.20000000000005 203.50915574807712 L 289.8 209.02126577115968 L 291.4 123.20265400521492 L 293 202.90001328736508 L 294.6 208.32021807946467 L 296.2 201.7460086991408 L 297.79999999999995 218.97994384561017 L 299.4 206.7331990502404 L 301 219.26256275806588 L 302.59999999999997 207.5021871262427 L 304.20000000000005 208.22757656724934 L 305.8 203.25404757117957 L 307.4 215.4178080776469 L 309 210.23658576067078 L 310.6 213.17714169886648 L 312.2 203.9736053048531 L 313.8 209.60141877838328 L 315.40000000000003 211.91083432290048 L 317 204.03475281254663 L 318.59999999999997 209.94688169985528 L 320.2 357.60793361521604 L 321.8 212.18093828706725 L 323.4 286.08002504588444 L 325 220.33838618934863 L 326.6 214.35337447929783 L 328.2 209.9941790413974 L 329.8 214.94292346209042 L 331.4 217.0908065028388 L 333 206.63789597193798 L 334.6 221.65760327674343 L 336.2 213.61020792512446 L 337.8 223.1171677645067 L 339.4 214.32414058464306 L 341 221.442889234029 L 342.6 223.4940853588185 L 344.2 222.7297099832053 L 345.8 226.06198186489678 L 347.4 218.51995295571436 L 349 221.70954135524488 L 350.6 218.00194287403798 L 352.2 220.50979410980136 L 353.8 217.7832391556558 L 355.4 210.43696179618325 L 357 317.1681147298892 L 358.6 216.49307674378477 L 360.2 216.61729875712467 L 361.8 213.35532018242665 L 363.4 221.33011988552147 L 365 213.05283680540202 L 366.6 222.56465028966488 L 368.2 205.9528997693991 L 369.8 229.6906187500304 L 371.40000000000003 214.19483613390787 L 373 220.3514627276889 L 374.59999999999997 225.16688922416367 L 376.2 222.1888876345157 L 377.8 217.91160841772154 L 379.4 224.57363058868734 L 381 226.8805930946184 L 382.6 221.4246784480811 L 384.2 230.75228675383013 L 385.79999999999995 94.16910006465935 L 387.40000000000003 220.28950022382293 L 389 224.49257664594342 L 390.59999999999997 217.8982760887776 L 392.20000000000005 219.61653113358824 L 393.8 218.56717871186797 L 395.4 227.1604653832082 L 397 221.05323971769553 L 398.6 222.48048017600001 L 400.2 224.4430926430357 L 401.79999999999995 212.0651229828331 L 403.40000000000003 225.00797802734093 L 405 224.40932599753643 L 406.59999999999997 220.2667191799854 L 408.20000000000005 224.4665881264349 L 409.8 216.22891106338898 L 411.4 225.92366037986233 L 413 225.0116876802487 L 414.6 224.92277820579258 L 416.2 91.36384105157279 L 417.79999999999995 230.2553473693834 L 419.40000000000003 221.21443231086383 L 421 229.55402861182708 L 422.59999999999997 221.5089323351234 L 424.20000000000005 219.8003509676206 L 425.8 217.25230751587674 L 427.4 224.6876483004248 L 429 219.9195637929657 L 430.6 212.5562939095543 L 432.2 222.30533561285796 L 433.8 217.46534321731087 L 435.40000000000003 218.9735232430874 L 437 211.6715653095359 L 438.59999999999997 227.65626207831676 L 440.2 223.0720393242612 L 441.8 217.51324502496752 L 443.4 214.903278877032 L 445 216.15990055229534 L 446.6 221.30022618025868 L 448.2 207.9300615414944 L 449.8 211.09482495394036 L 451.4 221.39175800820482 L 453 220.6473290620661 L 454.6 218.89408742911377 L 456.2 218.6421270381924 L 457.8 220.23071654775558 L 459.4 215.47531331567748 L 461 218.8568319360773 L 462.6 220.29410412272074 L 464.2 223.4788774291942 L 465.8 218.62926543522352 L 467.4 220.71514941003215 L 469 216.3582982435953 L 470.6 220.1148964785384 L 472.2 215.1436412138865 L 473.8 217.9596634166171 L 475.4 215.61090342064514 L 477 210.81915145389982 L 478.6 216.4374857063797 L 480.2 213.93273487319854 L 481.8 219.8112753594588 L 483.4 213.23546092199848 L 485 218.533054090994 L 486.6 210.20812090906333 L 488.2 209.38450047652103 L 489.8 212.81044490796964 L 491.40000000000003 219.96652880628835 L 493 218.5347932074879 L 494.59999999999997 215.101671425668 L 496.2 217.61674849238256 L 497.8 212.26229980213975 L 499.4 211.84304190635132 L 501 202.2197357567702 L 502.6 207.1797326225336 L 504.2 214.51663606891486 L 505.79999999999995 208.4547160401419 L 507.40000000000003 216.7000465957615 L 509 211.7830064312214 L 510.59999999999997 210.0934959457976 L 512.2 213.4820178351547 L 513.8 208.23465411032004 L 515.4 204.0693787224489 L 517 200.6219440593847 L 518.6 212.86764907337317 L 520.2 206.73847748522513 L 521.8 209.34091896444593 L 523.4000000000001 200.79498132673405 L 525 209.1313064321157" fill="none" stroke="#ff4757" stroke-opacity="0.75" stroke-width="1.2"/><path d="M 45 204.66666666666669 L 46.6 204.30366472202186 L 48.2 203.94082200202723 L 49.8 203.57829766149192 L 51.4 203.21625071557324 L 53 202.85483997002734 L 54.6 202.4942239515521 L 56.2 202.1345608382515 L 57.8 201.77600839025428 L 59.4 201.41872388051416 L 61 201.0628640258255 L 62.6 200.70858491808198 L 64.2 200.3560419558092 L 65.8 200.00538977600206 L 67.4 199.65678218629589 L 69 199.31037209750096 L 70.6 198.9663114565313 L 72.2 198.6247511797552 L 73.8 198.28584108679897 L 75.4 197.9497298348302 L 77 197.61656485335283 L 78.6 197.28649227953875 L 80.2 196.95965689412793 L 81.8 196.63620205792242 L 83.4 196.31626964890359 L 85 196.00000000000006 L 86.6 195.68753183753245 L 88.19999999999999 195.37900222036407 L 89.80000000000001 195.0745464797821 L 91.4 194.77429816013654 L 93 194.47838896026383 L 94.6 194.1869486757189 L 96.2 193.9001051418427 L 97.8 193.61798417768938 L 99.4 193.34070953083824 L 101 193.0684028231132 L 102.6 192.80118349723608 L 104.2 192.53916876443506 L 105.80000000000001 192.28247355303142 L 107.4 192.03121045802885 L 109 191.78548969172522 L 110.6 191.54541903536958 L 112.2 191.31110379188635 L 113.8 191.08264673968552 L 115.4 190.86014808758063 L 117 190.64370543083425 L 118.6 190.43341370834918 L 120.2 190.22936516102496 L 121.8 190.03164929129844 L 123.4 189.8403528238846 L 125 189.65555966773644 L 126.60000000000001 189.47735087923974 L 128.2 189.30580462665898 L 129.8 189.1409961558502 L 131.39999999999998 188.98299775725565 L 133 188.83187873419496 L 134.60000000000002 188.68770537246604 L 136.2 188.55054091127033 L 137.8 188.4204455154739 L 139.39999999999998 188.29747624921703 L 141 188.18168705088402 L 142.60000000000002 188.07312870944423 L 144.2 187.97184884217398 L 145.8 187.8778918737704 L 147.4 187.79129901686525 L 149 187.71210825394738 L 150.6 187.64035432070273 L 152.2 187.5760686907779 L 153.8 187.51927956197488 L 155.4 187.4700118438824 L 157 187.42828714694994 L 158.6 187.39412377300866 L 160.2 187.36753670724332 L 161.8 187.3485376116198 L 163.4 187.33713481976935 L 165 187.33333333333334 L 166.60000000000002 187.33713481976935 L 168.2 187.3485376116198 L 169.8 187.36753670724332 L 171.39999999999998 187.39412377300866 L 173 187.42828714694994 L 174.60000000000002 187.4700118438824 L 176.2 187.51927956197488 L 177.8 187.5760686907779 L 179.4 187.64035432070273 L 181 187.71210825394738 L 182.6 187.79129901686525 L 184.2 187.8778918737704 L 185.8 187.97184884217398 L 187.4 188.07312870944423 L 189 188.18168705088402 L 190.6 188.29747624921703 L 192.2 188.4204455154739 L 193.8 188.55054091127033 L 195.4 188.68770537246604 L 197 188.83187873419496 L 198.6 188.98299775725565 L 200.2 189.1409961558502 L 201.8 189.30580462665898 L 203.4 189.47735087923974 L 205 189.65555966773644 L 206.6 189.8403528238846 L 208.20000000000002 190.03164929129844 L 209.79999999999998 190.22936516102496 L 211.4 190.43341370834918 L 213 190.64370543083425 L 214.6 190.86014808758063 L 216.20000000000002 191.08264673968552 L 217.79999999999998 191.31110379188635 L 219.4 191.54541903536958 L 221 191.78548969172522 L 222.6 192.03121045802885 L 224.20000000000002 192.28247355303142 L 225.79999999999998 192.53916876443498 L 227.4 192.80118349723608 L 229 193.0684028231132 L 230.6 193.34070953083824 L 232.20000000000002 193.61798417768938 L 233.79999999999998 193.9001051418427 L 235.4 194.1869486757189 L 237 194.47838896026383 L 238.6 194.77429816013654 L 240.20000000000002 195.0745464797821 L 241.79999999999998 195.37900222036407 L 243.4 195.68753183753245 L 245 196.00000000000006 L 246.6 196.31626964890359 L 248.2 196.63620205792242 L 249.8 196.95965689412793 L 251.4 197.28649227953875 L 253 197.61656485335283 L 254.6 197.9497298348302 L 256.2 198.28584108679897 L 257.8 198.6247511797552 L 259.4 198.9663114565313 L 261 199.31037209750096 L 262.6 199.65678218629589 L 264.2 200.00538977600206 L 265.8 200.3560419558092 L 267.4 200.70858491808198 L 269 201.0628640258255 L 270.6 201.41872388051416 L 272.2 201.77600839025428 L 273.8 202.1345608382515 L 275.4 202.4942239515521 L 277 202.85483997002734 L 278.6 203.21625071557324 L 280.2 203.57829766149192 L 281.8 203.94082200202723 L 283.4 204.30366472202186 L 285 204.66666666666669 L 286.6 205.02966861131154 L 288.20000000000005 205.39251133130617 L 289.8 205.75503567184148 L 291.4 206.11708261776016 L 293 206.47849336330603 L 294.6 206.8391093817813 L 296.2 207.19877249508187 L 297.79999999999995 207.55732494307912 L 299.4 207.91460945281926 L 301 208.27046930750788 L 302.59999999999997 208.62474841525142 L 304.20000000000005 208.97729137752412 L 305.8 209.32794355733134 L 307.4 209.67655114703751 L 309 210.02296123583244 L 310.6 210.3670218768021 L 312.2 210.70858215357816 L 313.8 211.04749224653443 L 315.40000000000003 211.3836034985032 L 317 211.71676847998057 L 318.59999999999997 212.04684105379465 L 320.2 212.37367643920547 L 321.8 212.69713127541098 L 323.4 213.0170636844298 L 325 213.33333333333334 L 326.6 213.64580149580092 L 328.2 213.95433111296933 L 329.8 214.2587868535513 L 331.4 214.5590351731969 L 333 214.8549443730696 L 334.6 215.14638465761453 L 336.2 215.43322819149068 L 337.8 215.715349155644 L 339.4 215.9926238024952 L 341 216.2649305102202 L 342.6 216.53214983609732 L 344.2 216.79416456889834 L 345.8 217.05085978030198 L 347.4 217.30212287530452 L 349 217.54784364160818 L 350.6 217.78791429796382 L 352.2 218.02222954144705 L 353.8 218.25068659364788 L 355.4 218.47318524575275 L 357 218.68962790249915 L 358.6 218.8999196249842 L 360.2 219.10396817230844 L 361.8 219.30168404203496 L 363.4 219.49298050944884 L 365 219.67777366559696 L 366.6 219.85598245409366 L 368.2 220.02752870667445 L 369.8 220.19233717748324 L 371.40000000000003 220.35033557607773 L 373 220.5014545991384 L 374.59999999999997 220.64562796086736 L 376.2 220.78279242206307 L 377.8 220.91288781785948 L 379.4 221.03585708411634 L 381 221.15164628244938 L 382.6 221.26020462388917 L 384.2 221.36148449115944 L 385.79999999999995 221.45544145956296 L 387.40000000000003 221.54203431646812 L 389 221.62122507938602 L 390.59999999999997 221.69297901263064 L 392.20000000000005 221.75726464255547 L 393.8 221.81405377135852 L 395.4 221.86332148945098 L 397 221.90504618638346 L 398.6 221.93920956032474 L 400.2 221.96579662609008 L 401.79999999999995 221.9847957217136 L 403.40000000000003 221.99619851356402 L 405 222.00000000000006 L 406.59999999999997 221.99619851356402 L 408.20000000000005 221.9847957217136 L 409.8 221.96579662609008 L 411.4 221.93920956032474 L 413 221.90504618638346 L 414.6 221.86332148945098 L 416.2 221.81405377135852 L 417.79999999999995 221.75726464255547 L 419.40000000000003 221.69297901263064 L 421 221.62122507938602 L 422.59999999999997 221.54203431646812 L 424.20000000000005 221.45544145956296 L 425.8 221.36148449115944 L 427.4 221.26020462388917 L 429 221.15164628244938 L 430.6 221.03585708411634 L 432.2 220.91288781785948 L 433.8 220.78279242206307 L 435.40000000000003 220.64562796086736 L 437 220.5014545991384 L 438.59999999999997 220.35033557607773 L 440.2 220.19233717748324 L 441.8 220.02752870667445 L 443.4 219.85598245409366 L 445 219.67777366559696 L 446.6 219.49298050944884 L 448.2 219.30168404203496 L 449.8 219.10396817230844 L 451.4 218.8999196249842 L 453 218.68962790249915 L 454.6 218.47318524575275 L 456.2 218.25068659364788 L 457.8 218.02222954144705 L 459.4 217.78791429796382 L 461 217.54784364160818 L 462.6 217.30212287530452 L 464.2 217.05085978030198 L 465.8 216.79416456889834 L 467.4 216.53214983609732 L 469 216.2649305102202 L 470.6 215.9926238024952 L 472.2 215.715349155644 L 473.8 215.4332281914908 L 475.4 215.14638465761453 L 477 214.8549443730696 L 478.6 214.5590351731969 L 480.2 214.2587868535513 L 481.8 213.95433111296933 L 483.4 213.64580149580092 L 485 213.33333333333334 L 486.6 213.0170636844298 L 488.2 212.69713127541098 L 489.8 212.37367643920547 L 491.40000000000003 212.04684105379465 L 493 211.71676847998057 L 494.59999999999997 211.3836034985032 L 496.2 211.04749224653443 L 497.8 210.70858215357816 L 499.4 210.3670218768021 L 501 210.02296123583244 L 502.6 209.67655114703757 L 504.2 209.32794355733134 L 505.79999999999995 208.9772913775242 L 507.40000000000003 208.62474841525142 L 509 208.27046930750782 L 510.59999999999997 207.91460945281926 L 512.2 207.55732494307912 L 513.8 207.19877249508187 L 515.4 206.8391093817813 L 517 206.47849336330603 L 518.6 206.11708261776016 L 520.2 205.75503567184148 L 521.8 205.39251133130617 L 523.4000000000001 205.02966861131154 L 525 204.66666666666669" fill="none" stroke="#f2f6fc" stroke-width="2.2"/><text x="55" y="325" fill="#8b9bb4" font-size="10">Tiempo [s]</text><text x="55" y="65" fill="#f2f6fc" font-size="10">Ideal vs 3% Outliers de Burbujas</text></svg>